<svg height="48pt" viewBox="0 0 48 48" width="48pt" xmlns="http://www.w3.org/2000/svg" xmlns:xlink="http://www.w3.org/1999/xlink"><linearGradient id="a" gradientTransform="matrix(43.53 0 0 40.178 2.22 3.753)" gradientUnits="userSpaceOnUse" x1="0" x2="1" y1=".5" y2=".5"><stop offset="0" stop-color="#ffe031"/><stop offset=".98695652174" stop-color="#fc5252"/></linearGradient><path d="m5.72 26.25v-13.22c0-1.656 1.325-3.227 2.957-3.508l10.263-1.762c.949-.166 1.588-1.073 1.425-2.025-.163-.952-1.07-1.591-2.025-1.425l-11.192 1.923c-2.72.468-4.928 3.087-4.928 5.847v14.92 1.75 7.19c0 2.76 2.206 5.393 4.923 5.877l10.517 1.873c.955.171 1.867-.463 2.035-1.415.168-.952-.466-1.864-1.415-2.035l-9.606-1.706c-1.63-.289-2.954-1.868-2.954-3.524v-7.01zm20 .78c-.017.966-.814 1.737-1.78 1.72-.966-.017-1.737-.814-1.72-1.78l.309-19.021c.045-2.759 2.286-4.604 5.003-4.118l13.296 2.378c2.717.486 4.922 3.121 4.922 5.881v6.91c0 .966-.784 1.75-1.75 1.75-.966 0-1.75-.784-1.75-1.75v-5.98c0-1.656-1.323-3.237-2.953-3.529l-10.294-1.842c-1.63-.292-2.975.815-3.003 2.471zm16.53 2.97c0-.966.784-1.75 1.75-1.75.966 0 1.75.784 1.75 1.75v4.47.03c-.03 1.79-.68 3.52-1.85 4.89-1.14 1.38-2.73 2.33-4.5 2.66-.01 0-.02.01-.02.01l-10.15 1.77c-.38.07-.75.1-1.13.1-1.57.02-3.08-.6-4.18-1.71-1.1-1.15-1.7-2.68-1.67-4.27v-2.95c0-.966.784-1.75 1.75-1.75.966 0 1.75.784 1.75 1.75v2.97.03c-.01.66.23 1.29.68 1.78.44.42 1.03.66 1.64.65.19 0 .37-.02.55-.05l10.14-1.77c.97-.18 1.84-.71 2.46-1.48.65-.74 1.01-1.69 1.03-2.67zm-6.25 7h-2v-4.37l4.83-5.63h-4.83v-5h-7.03l7.03-7.4v-4.6h2v5.4l-4.37 4.6h4.37v5h7.17l-7.17 8.37z" fill="url(#a)" fill-rule="evenodd"/></svg>