<svg height="512" width="512" xmlns="http://www.w3.org/2000/svg"><path fill="#C0C0C0" clip-rule="evenodd" d="m94.3808517 193.5726776c-3.7467117.5310669-5.0057373-5.0558319-.8768997-5.9220276 16.5085831-1.7929688 24.2908096 4.7171631 24.7047119 13.4341583.1921921 3.6389771-5.4465714 4.5856323-5.9769745.3320618-.0865249-7.8892059-10.8993301-8.712326-17.8508377-7.8441925zm14.3122406 145.3151703-39.8441543-36.8007202c-2.4956589-2.1183472-5.4906883 1.375824-3.2492218 3.5169678l39.8441544 36.8007202c2.3554534 2.0652771 5.4811401-1.1321106 3.2492217-3.5169678zm106.4911576-20.3710327-31.8468018-18.1986694c9.6142273-8.3504639 12.7205048-15.5392761.3291321-29.6229858l34.2255402-22.5112762c2.5669556 9.1980133 6.2859192 18.4357758 10.0574951 25.3126984 4.3666992 25.0963743-1.2785187 40.5807493-12.7653656 45.020233zm-11.4582062-19.2217407-9.1567841-4.709198c-.8421936 1.6111145-1.9486237 3.1890869-3.3233185 4.736084l24.107254 13.7755737c13.0991821-7.5787659 8.6369171-34.6598816 8.0347748-37.9745789-4.0536346-7.6115417-6.8503723-15.2861938-8.2236023-19.4129028l-24.4609375 16.0888367c.6416779.8647156 1.2110901 1.7174988 1.7474518 2.5648804l17.1960144-9.5239868c2.7310028-1.4079895 5.0833435 2.4848022 2.3208618 4.1904297l-17.2508087 9.5543213c.6706085 1.5319214 1.1679688 3.0372009 1.4702759 4.5135498h14.3207855c3.092926 0 3.092926 4.7890625 0 4.7890625h-13.9902648c-.0531311.7257996-.1604767 1.4441833-.3100586 2.1568909l9.7082672 4.9927979c2.8894806 1.6324766.4910278 5.6084288-2.1899109 4.2582396zm-35.8519135 58.4356689c-2.4584198 1.6788025-.2759399 5.6317749 2.6564331 3.9846497 8.4504242-5.6332092 4.2757874-14.4455261 2.0332489-19.1807861-1.023819-2.0305481.7607269-4.1143494 5.1214752-6.2470703 2.7836609 3.1916504 3.8918457 5.9305115 1.8247681 8.8964844-1.7122345 2.6112061 1.9567108 5.2911072 3.9285278 2.7382812 7.8134155-11.5458984-10.9242554-20.9368896-11.246582-24.5860291-.0224152-3.214325-4.5263672-3.4316711-4.7820435-.263092-.4246368 3.1654053 3.694809 6.7698975 6.7541962 9.6219177-16.1861724 9.4680786 3.7183686 17.5496216-6.2900238 25.0356445zm67.6057435-94.8172302c8.9052582 12.8220825 10.29953 25.7687073 4.2623444 39.5793457-1.1452484 2.812439 2.9195404 4.8514099 4.3880157 1.9174805 6.6650543-15.2452393 5.0778656-30.1268921-4.7171478-44.229248-2.037674-2.5857545-5.6531983.2036437-3.9332123 2.7324218zm25.9955291 77.9397583c3.9437256-4.9948425 1.6310425-10.5941467-.2379456-13.6481018 8.0363464-5.7945862 5.8088684-14.2761536-.2262268-21.2351074-2.4307861-2.2325134-5.5303497 1.1130676-3.4328003 3.3392639 9.005188 10.8897095 1.0891418 14.0776367-3.5619812 16.4740906 4.3268433 4.4544983 6.0738831 8.9230042 3.6999512 12.102417-1.8645935 2.6058654 1.6493226 5.3484496 3.7590027 2.9674377zm7.0345154-9.1419983c5.9580078-4.5120544 5.9031982-7.6091919 3.0299988-16.7675476-.7589111-3.2073364-5.2046814-2.2023315-4.7236023.7880249 1.1230164 6.3148804 4.1161804 8.2230225-1.1686096 12.1398621-2.3856201 1.8144226.0340881 5.5678405 2.8622131 3.8396606zm29.3669129-84.7585602c8.1130981-12.1942139-1.2156067-15.3370361-2.4915771-19.0855103-.5529175-3.2534943-5.0113525-2.5748138-4.7680359.439621.9057617 6.5015564 9.9850159 6.5015411 3.3310852 15.907608-1.7275086 2.4741364 1.9071349 5.3733369 3.9285278 2.7382813zm-3.4854126 22.6188507c5.8320007-6.2394714 6.3978882-13.0570984 1.6369019-19.7163086-2.1144714-2.5776215-5.6499329.3580933-3.895813 2.7850494 3.4561768 4.8334808 3.0738525 9.0467377-1.2393494 13.6598053-2.0332947 2.231659 1.0710144 5.5108643 3.4982605 3.2714539zm11.9095153-32.4085998c-2.3276672-2.4574127-5.5717773.6332703-3.7227478 3.0112915 3.3369141 4.1997681 3.9348145 7.4971924-.2104492 10.7537537-2.3601379 2.0061035.3572998 5.6638184 2.9955139 3.735611 6.164032-4.9019013 5.9948426-11.3605805.9376831-17.5006562zm11.7575379 33.6713257c-.0524902-2.5029297-3.4057922-2.4805298-3.5847778-.2151184.1802979 6.0873413 6.415802 9.6709595-.1274414 15.0675354-1.7532349 1.4706421.2646179 4.2490845 2.244873 2.8037415 2.4891357-1.9913635 3.698761-3.9950867 4.154541-5.9099426 3.9889526 3.0430603 6.5144348 4.3712769 4.1888733 11.4859009-.6955261 2.2392578 2.629303 3.3670654 3.4164429 1.1107483 5.1760559-14.5733644-7.6945496-11.4804384-10.292511-24.3428651zm-2.7827149 20.3628845c-2.1404419-.9376831-3.6647339 2.1535645-1.5106201 3.2573853 5.7314453 2.6365662 4.2348633 5.6297302-1.5480347 11.6043701-1.6907959 1.6539001.7902527 4.1899414 2.5114746 2.5675659 6.6761475-6.1476746 9.631897-13.1441956.5471802-17.4293213zm117.1461182-44.6069184-23.9453125 2.3945312c-2.2211914.1094666-2.0446472 3.6924896.1765442 3.5830231l24.1265259-2.4032898c2.3645935-.2366638 2.0068054-3.810913-.3577576-3.5742645zm18.2208862-35.8384552-27.237793 21.5507812c-1.8260803 1.5667725.3712463 4.2711792 2.2285156 2.8166046l27.2377625-21.550766c1.8518067-1.6566161-.4042358-4.2069243-2.2284851-2.8166198zm3.2468872 14.7974549-23.0473633 12.5712891c-2.0585327 1.1234894-.3374634 4.2768402 1.7210693 3.1533356l23.0473633-12.5712891c2.0641785-1.1266327.3431092-4.2799836-1.7210693-3.1533356zm-.0011901 49.1305542-26.0405274-15.8637696c-2.0961609-1.1498108-3.8458557 1.7504883-1.8683777 3.0679932l26.0405273 15.8637695c2.046814 1.1398011 3.8660584-1.6969604 1.8683778-3.0679931zm-9.7336121 8.4779052-22.7480469-17.0610352c-1.9653015-1.3937988-4.009552 1.4312744-2.1560059 2.8739014l22.7480469 17.0610352c1.9606934 1.3537598 3.9978028-1.3377991 2.1560059-2.8739014zm44.9699402-43.6475677c7.5296631-17.4702606 4.8872681-36.7966309-8.0780334-59.08284-1.1773987-2.0240326-4.2828064-.2176208-3.1054077 1.806427 12.3526306 21.2327576 14.9319153 39.5033264 7.8839417 55.85466-.9325868 2.1643067 2.3669127 3.5860596 3.2994994 1.421753zm21.6945801-17.1575012c-1.0581055-22.5539551-5.8670654-40.0604553-14.2923584-52.0331116-1.3658142-1.9405518-4.3028564.1266022-2.9370422 2.0671539 8.0254211 11.4055939 12.6157227 28.2731171 13.6423035 50.1343231.1096495 2.3368378 3.6967467 2.1684723 3.5870971-.1683654zm-26.9255982 105.0489349c7.7939148-15.5889893 12.3257446-40.9455261 4.8790894-62.4518738-.7812805-2.2536926-4.1743164-1.0774841-3.3930359 1.1762085 7.1040955 20.5183716 2.7593384 44.7536316-4.6990356 59.6691895-1.0589905 2.1180115 2.1539611 3.7244873 3.2129821 1.6064758zm23.6565247 3.3158569c5.9453735-19.3690186 5.9325562-37.2145996-.0362549-53.0421143-.8625488-2.2868652-4.2228394-1.0194702-3.3602905 1.267395 5.6811523 15.0652161 5.6694641 32.1297607-.0362549 50.7201233-.6791992 2.210724 2.7536011 3.2653504 3.4328003 1.054596zm-450.550663-50.9772949c-14.8213997 2.4345703-21.8511467 9.8314514-16.854084 16.669342 3.1469154 4.0957336 41.2431107 53.2385559 78.78685 81.3965149 4.4548187 3.3410645 14.0681686 5.5478821 26.4477005 6.9284973l19.8048706 28.3966675c.7818909 1.0319214 2.0396271 1.0190735 2.8499298.1251221l7.5592041-9.0241394c10.2963867 9.8162231 18.1312103 1.0212402 23.3944702-17.5906982 36.1539459-.9407349 72.8767853-2.0726013 92.3459015-8.3908691 8.9197083 11.3414917 19.765686 12.2017212 31.088623 6.0924377 19.7455444-10.9051819 52.8924866-47.8684082 55.3852234-65.3737488-.0456543-2.534668.6985474-1.9233398-14.1356812-3.0674744 14.4525452-26.8173828 10.3977966-45.3249207 36.3716125-43.0038452l58.9372864 49.0270691c2.2938232 1.9037476 5.7701721 1.3259583 7.2127991-1.2919617 9.4857788-16.4764404 14.1976624-41.7593079-.0187073-64.5149536 12.1188049-19.6665955 12.3736877-42.5333252.8067627-69.785141-.8161011-1.9262695-2.7967529-3.0954742-4.869751-2.8961182-4.3692932-1.7072296-54.0558167 48.977005-66.7194824 48.8008423-2.6499329-.7471924-11.8628235-6.8130341-19.9510803-12.2002106 3.9495239-.9971161 13.8962708-4.469986 11.7046814-7.8545685-23.6962585-31.7246094-51.2578735-45.661911-83.4320374-42.6138l-26.9308472 19.9828949c-48.9155121 1.9552765-110.3751373-1.8360596-170.1908264 26.8453064-14.7957535-6.5833588-24.7586517-1.0910492-30.35569 15.3101501-16.9403877 9.517395-30.1506424 18.6681061-36.6734924 24.4235229-7.9574108 9.9511415 12.7162858 20.4054567 17.4357644 23.6091615zm302.4137306-70.2819977c4.0035095 2.5800781 8.0184326 5.2419128 11.910553 7.8347626 5.2702637-1.0354004 9.1549377-2.4593353 11.8872986-4.3605347-2.8880005-3.7834778-5.8280334-7.2915344-8.8211975-10.5347595zm-17.6669006-10.6334076c4.458252 2.4104004 9.2336731 5.2843781 14.086731 8.3499603l15.9458313-7.5174103c-3.8723145-3.9529266-7.8804321-7.4206848-11.9391174-10.4961243zm-19.392273-6.0971069c13.9305725 2.4019165 9.055481 1.229126 15.5195923 4.0933075l18.7957764-10.0327148c-4.4872742-3.1077423-9.0986023-5.6664124-13.8279724-7.7376556-.3385621.6742095-7.1841126 4.7590026-20.4873963 13.6770629zm-21.5328674-2.2098694c6.325531.4326782 11.6837769.9578705 16.0984802 1.4898682l22.0490723-14.5296326c-2.4151917-.9019012-4.8578186-1.6121521-7.3386536-2.2535248zm-18.1768799-.8448944c3.9013977.1026764 7.5510864.2465515 10.9758911.418869l32.4078674-16.1443787c-6.7740173-1.1991577-13.7846985-1.5000153-21.0683289-.8521271zm-176.0705414 51.7987976c4.9660797 8.2767944 2.0031052 27.8495331-19.2562103 29.7998505 1.7673264 4.9482727 4.0402603 8.6808167 6.8269882 11.1390686 3.6794891 3.2445679 8.3358459 4.4301147 14.6647491 3.7274475 13.0272751-1.4474792 18.4880447-17.9262695 18.0770721-28.6075134-.4343567-11.2968597-7.4913864-25.8081512-22.049736-32.6462555-14.2525864-7.2959442-17.4226151.5205994-21.3796387 11.8021088 5.6058122-5.8763733 15.1689988-8.4610138 23.1167756 4.7852935zm-23.6527786 1.8506012c.1730423 4.5238647.5076523 8.6757812.9855652 12.492218 13.2352447-3.9201202 4.9292145-17.2022857-.9855652-12.492218zm91.3205032 147.3262635-4.4363098-4.264801-7.3183594-.3143921 7.3303986 8.5521545c1.4766846 1.9210205-1.1273956 4.0843811-2.726593 2.3384094l-9.5817719-11.1786804c-2.5468903-.1655273-5.0247345-.3555298-7.4189606-.5725403l16.6985016 23.9425354 16.6465454-19.8729858-3.1531982-2.6465759c-1.7210693-.0250549-3.4336548-.0561218-5.1308289-.0961609l1.583313 1.5267639c1.6488648 1.8642883-.8189087 4.1286926-2.4927368 2.5862732zm13.0991822-.4396058-9.4384766 11.2676086c8.1259155 8.3865356 12.7759705-1.0713501 17.3284149-14.797821-3.3924408.0201416-6.5618286.0273743-9.2937927.0094299 1.300415.992035 2.5272522 1.9598695 1.4038544 3.5207825zm139.9135284-13.2293396c-6.0491333-1.1931763-18.2961731-4.3858948-18.265686-5.4927673-4.4745483 2.1408081-9.130249 4.0133667-13.9682617 5.6085815 9.4089355 10.7982178 20.3370666 8.8198548 32.2339477-.1158142zm4.1576233-3.1604919c3.8200684-3.0555115 7.7539368-6.5909729 11.6221619-10.4102478-5.4039612-1.2741394-9.6928406-4.4464111-11.6765442-6.126709-5.6880188 4.664917-11.8066101 8.7209473-18.3361816 12.1730347 6.9725646 2.1690063 13.8727721 4.2765808 18.3905639 4.3639221zm25.9578552-26.2262878-12.606781-3.3301086c-3.3423157 3.8231506-6.8820801 7.3759155-10.6181335 10.652832 2.2053223 1.7741089 6.723877 4.8506775 11.9782715 5.3641052 3.9450378-4.0814209 7.7597351-8.3867188 11.246643-12.6868286zm12.1446838-17.3642884-13.677948-.6955566c-2.5284729 3.9043579-5.3419495 7.8269043-8.5058899 11.6932983l12.4743347 3.295105c3.8620301-4.9848328 7.2023011-9.8711548 9.7095032-14.2928467zm-7.6522216-10.8709717c-1.1894531 2.2052612-2.4708252 4.4412231-3.8360901 6.6903992l13.3465576.6786499c1.1414185-2.3308105 1.9992676-4.4860229 2.4942017-6.3846741zm-287.3135376-75.7122955c-3.2414017 1.9137726-6.2947769 3.7909241-9.1481552 5.6079407 7.1724625 13.2419586-1.6573677 17.2328339-5.382576 3.5160217-4.9471245 3.3199615-9.0623589 6.3419037-12.1311531 8.8587799 7.5001144 7.3197327 14.0143394 7.3197327 22.3066673 17.65271 8.4564209 7.665741 19.101738 19.4551392 22.5866928 27.8164673 1.2091141 2.9008179-3.211647 4.7434692-4.4207611 1.8426819-2.5843811-6.2010193-10.1716385-15.1555176-17.2854462-22.20224-1.4955215-.1602783-9.5224876-.7437439-22.0039215 5.539917 7.5045433 9.5500488 42.3918533 52.9532471 75.6089554 77.865509 13.0866928 8.7722168 86.5772629 7.9880066 142.0285339 3.3182068 68.393219-7.7904053 88.6099243-59.756897 98.3260193-84.7299194 5.79245-20.4831238 20.9161377-27.8873596 38.9769287-24.9899292l56.4921265 46.9908447c6.4645386-14.4349976 8.3095398-34.2740784-3.9764709-51.845459-1.1411438-1.6316223-1.152832-3.7993317-.0303955-5.4438171 10.9881897-16.0987701 12.2579346-35.0913391 3.8338318-57.9194641-25.1846619 21.4256744-50.9216919 45.9883881-65.1714783 46.2999115-6.3309631 1.4916687-57.5180664-37.8822327-67.0458374-38.4004059-1.4759827 19.0798798-12.2449341 25.3990784-12.2449341 25.3990784-5.7318115-3.8211823-12.7289734-21.6044159-15.3251343-28.6412811-7.2463684-.5007782-15.8486328-.8828278-25.8660889-1.0028076-9.9918823 14.9276733 6.3208618 22.5602417-16.6765747 36.2289734-8.9940338-4.9185486-17.4026642-24.5235596-19.9977112-35.5539856-6.1813049.28302-12.6885071.6577606-19.5354462 1.1417999-6.9702454 8.6382751 3.0348206 23.645874-16.3392639 39.0017548-5.3876953 2.9931488-8.3003693-25.0085297-18.4771271-35.7839203-3.576767.3516693-6.8727112.6912231-10.2394867 1.197525-1.0800476 17.2036743-6.5718079 31.3808746-8.6171875 36.1420898 7.5209808 17.4359894-2.8231964 59.311264-22.507843 72.8770294l-2.7172394-3.9425659c20.5049286-14.6676636 26.2832184-58.4402313 21.2532196-66.698822-10.5361786-17.2990112-10.5048523-19.3698578-28.7345123-27.4810333-5.2087326 1.8833618-10.3362122 3.923996-15.3610153 6.0530396 60.0713196 54.1731108-39.8095474 122.0256804-42.1772155 21.2853697zm-2.4889145-130.2439804c0-7.1567535-7.8008194-11.654007-14.0077667-8.0756302s-6.2069473 12.5728836 0 16.1512604c6.2069549 3.5783768 14.0077667-.9188767 14.0077667-8.0756302zm-17.0076828 13.2563019c-10.1888275-5.87397-10.1888313-20.6386337-.0000038-26.5126038 10.1888237-5.8739777 22.9940071 1.5083542 22.9940071 13.2563019s-12.8051758 19.1302719-22.9940033 13.2563019zm10.0527649 50.1975784c0-3.9649658-4.3217773-6.4565125-7.7605247-4.4740295-3.4387474 1.9824677-3.4387474 6.9655762 0 8.9480438 3.4387511 1.9824829 7.7605247-.5090637 7.7605247-4.4740143zm-10.7604447 9.6546936c-7.4206238-4.2780762-7.4206276-15.0313263 0-19.3094025s16.7467728 1.0985565 16.7467728 9.6547089c0 8.5561371-9.3261452 13.9327698-16.7467728 9.6546936zm-17.7871551-28.1560516c0-10.3457947-11.2768497-16.8470154-20.2496109-11.674118s-8.9727592 18.175354.0000019 23.3482513 20.249609-1.3283234 20.249609-11.6741333zm-25.0494785 19.963211c-15.3437653-8.8458557-15.3437691-31.0805511-.0000057-39.9264069s34.6276093 2.2714996 34.6276093 19.9632111-19.2838403 28.8090363-34.6276036 19.9631958z" fill-rule="evenodd"/></svg>