<svg height="512" width="512" xmlns="http://www.w3.org/2000/svg"><path fill="#b5e3f1" d="m450.3916626 268.2160034c2.1280212 1.4750977 4.178009 2.3008728 6.4846191 3.5538635 1.8692017 1.0170288 3.772583 1.9699097 5.6485596 2.9732056 1.4625854.7810669 4.1711121 2.4246216 2.5287476 4.3452454-1.0662842 1.2506714-3.6488647 1.0548096-5.1629028 1.2667236-2.3981934.333313-5.3484497.2061768-7.7398682 0-2.9295654-.2542419-5.9921875.4397888-8.9733582.4397888-2.1520386 0-4.3200378.0927734-6.4490967.0870361-.767334-.0023499-1.7339478.1763916-2.2585449-.5005493-.5450745-.7009583-.1626587-1.4808655.2634277-2.0649109.5107117-.6963806.9918213-1.6251221 1.6068115-2.1691589.5508728-.4844666 1.2724915-.8200073 1.8244934-1.2460632 1.344574-1.036499 1.8118286-2.1325684.6207581-3.4702454-1.1842651-1.3330994-2.054718-2.2756653-2.1153564-4.1619568-.0766907-2.4085083 1.4534302-2.90448 3.5034485-3.4301147 3.0693665-.7868347 2.8105469-.2600098 5.3805542 1.2105408 1.2312011.7042236 4.2558899 2.762207 4.8377075 3.1665954zm-391.8377342.9654236c-2.1657639 1.4179077-4.2370033 2.1898193-6.575634 3.3820496-1.8948555.9677734-3.8230133 1.8702393-5.7242012 2.8242798-1.4826241.7421265-4.2336006 2.3135376-2.6415596 4.27771 1.0330963 1.2780762 3.6196518 1.1499023 5.1280785 1.4006348 2.3884735.3962708 5.341053.3458557 7.7370338.2038269 2.9353409-.1786194 5.9784622.5967102 8.9584885.6734009 2.1514511.0584106 4.3160477.2073669 6.4445114.2566223.7667618.01828 1.7287979.222229 2.2710876-.440979.5629349-.6860657.2010117-1.4762878-.2095795-2.0706482-.4918594-.7089233-.9488907-1.6503296-1.5490036-2.2104492-.5382996-.4993591-1.250061-.8531799-1.7911758-1.2929688-1.3170319-1.072052-1.7557602-2.1806641-.529747-3.4863281 1.219223-1.3010864 2.1135788-2.2207642 2.2241669-4.1047058.1396866-2.406311-1.3038864-3.3431091-3.4130096-3.5217285-2.7148514-.2302246-2.6089554.3263855-5.3043442 1.3330994-1.3292237.4959715-4.4323884 2.3868406-5.0251122 2.7761839zm451.0217247 17.0139465c-16.682251 19.2396545-48.3278198 9.6053467-100.5655212 34.5968323-69.3256226 33.1664124-73.8895569 52.8950806-153.6336823 53.4586792-82.4882965.5839539-84.365448-22.0686035-157.4451294-54.6315002-57.6859169-25.7036438-89.6315689-14.1694641-96.4608459-34.303772-9.3048563-26.4332275 27.7996559-50.8049469 48.0838966-65.0889587 92.0239563-64.8027649 132.1100922-82.2592468 203.8681946-82.1917114 77.0320892-4.3965759 151.5216217 40.8513489 207.1896515 82.1917114 19.8294944 14.7250518 61.8937644 42.9105529 48.9634361 65.9687194zm-250.9769898-16.50531-.007843 16.3467407c17.0960999-1.4954224 30.7427063-15.3244629 32.381012-32.7666779l-16.3608093.0323029c-1.3838196 8.4309998-7.8521119 15.0656738-16.0123597 16.3876343zm9.441864-16.3745117-9.4340515.0187836-.0046997 9.7995453c4.622284-1.1684876 8.2536316-4.966034 9.4387512-9.8183289zm.1004334-6.414856c-1.0903931-5.0137939-4.8002319-8.9546356-9.5266418-10.1550446l-.0046997 10.1740265zm-48.1052399.0955353 16.5375977-.0328979c1.223114-8.4626923 7.5522156-15.1995697 15.6294708-16.707901l.0082245-16.7958069c-17.2345123 1.6279449-30.8809204 15.8138732-32.175293 33.5366058zm32.1513977 15.9886932.0046997-9.6378632-8.9759827.0178223c1.1575318 4.6657257 4.5841218 8.3258515 8.971283 9.6200409zm-15.5450897-9.6071167-16.5608826.0328827c1.6882324 17.2826385 15.1739349 30.9964142 32.0950165 32.611618l.0078278-16.4052429c-7.920044-1.4873962-14.1587219-8.0014953-15.5419617-16.2392578zm15.5527344-6.445404.0048828-10.0460052c-4.5337982 1.3323517-8.0703888 5.1815796-9.1134033 10.0640259zm38.8088074-.077118c-1.3613281-17.7284088-15.0909424-31.8771515-32.3778992-33.4064178l-.0080261 16.7396088c8.2520447 1.345459 14.7683105 8.1263885 16.0397644 16.699295zm-71.366211 86.0838013c-34.0849152-13.7493896-58.0829163-46.5567627-58.0829163-84.8591309 0-20.928299 7.1761627-40.2092743 19.2339783-55.6478577-25.0985565 10.6452179-58.5239563 30.8515472-113.7376251 69.2116699-8.7373466 6.0710754-35.1613998 13.1397705-28.9311485 18.9808655 4.6911888 4.3979492 29.9058342 1.1727905 48.6702003 7.0365906 66.9018936 20.9065552 96.9142227 38.2477418 132.8475113 45.2778626zm226.0219422-71.0788269c-51.5046082-36.9862671-86.7762146-57.9008484-115.5654602-69.2670593 11.9811096 15.4113922 19.1046143 34.6320648 19.1046143 55.4867554 0 37.0310974-22.436615 68.9168396-54.7277832 83.4197083 43.1650391-9.9398804 86.1368408-32.7883911 127.146759-44.1315002 28.0159912-7.7514954 38.9947815-1.4660339 51.3088684-7.6230774 4.9660339-2.4830324-20.1272584-12.7598268-27.2669983-17.8848268z"/></svg>